<svg xmlns="http://www.w3.org/2000/svg" xml:space="preserve" viewBox="0 0 512 512"><path d="M12.8 256V12.8H256V256H12.8z" style="fill:#ff877f"/><path d="M12.8 256H256v243.2H12.8z" style="fill:#6fb0b6"/><path d="M256 256V12.8h243.2V256H256z" style="fill:#fedea1"/><path d="M256 256h243.2v243.2H256z" style="fill:#a0bf7c"/><path d="M486.4 0H25.6C11.46 0 0 11.46 0 25.6v460.8C0 500.54 11.46 512 25.6 512h460.8c14.14 0 25.6-11.46 25.6-25.6V25.6C512 11.46 500.54 0 486.4 0zm0 243.2H268.8V25.6h217.6v217.6zM243.2 25.6v217.6H25.6V25.6h217.6zM25.6 268.8h217.6v217.6H25.6V268.8zm243.2 217.6V268.8h217.6v217.6H268.8z" style="fill:#573a32"/><path d="M121.6 198.4h25.6v-51.2h51.2v-25.6h-51.2V70.4h-25.6v51.2H70.4v25.6h51.2zM323.294 170.607l18.099 18.099 36.207-36.207 36.207 36.207 18.099-18.099-36.207-36.207 36.207-36.207-18.099-18.099-36.207 36.207-36.207-36.207-18.099 18.099 36.207 36.207zM70.4 364.8h128v25.6h-128zM313.6 390.4h128V416h-128zM313.6 339.2h128v25.6h-128z" style="fill:#573a32"/></svg>